<svg xmlns="http://www.w3.org/2000/svg" xmlns:xlink="http://www.w3.org/1999/xlink" width="500" zoomAndPan="magnify" viewBox="0 0 375 374.999991" height="500" preserveAspectRatio="xMidYMid meet" version="1.0"><defs><g/><clipPath id="08e27fbbb7"><path d="M 87.175781 87.175781 L 288 87.175781 L 288 288 L 87.175781 288 Z M 87.175781 87.175781 " clip-rule="nonzero"/></clipPath></defs><g clip-path="url(#08e27fbbb7)"><path fill="#545454" d="M 187.5 287.824219 C 132.179688 287.824219 87.175781 242.816406 87.175781 187.5 C 87.175781 132.179688 132.179688 87.175781 187.5 87.175781 C 242.816406 87.175781 287.824219 132.179688 287.824219 187.5 C 287.824219 242.816406 242.816406 287.824219 187.5 287.824219 Z M 187.5 88.953125 C 133.160156 88.953125 88.953125 133.160156 88.953125 187.5 C 88.953125 241.839844 133.160156 286.042969 187.5 286.042969 C 241.839844 286.042969 286.042969 241.839844 286.042969 187.5 C 286.042969 133.160156 241.839844 88.953125 187.5 88.953125 Z M 187.5 88.953125 " fill-opacity="1" fill-rule="nonzero"/></g><g fill="#545454" fill-opacity="1"><g transform="translate(151.863304, 223.502274)"><g><path d="M 36.96875 0 L 7.296875 0 L 7.421875 -1.21875 L 8.875 -1.21875 C 10.976562 -1.21875 12.78125 -1.945312 14.28125 -3.40625 C 15.78125 -4.863281 16.570312 -6.644531 16.65625 -8.75 L 16.65625 -76.359375 C 16.65625 -78.460938 15.882812 -80.242188 14.34375 -81.703125 C 12.800781 -83.171875 10.976562 -83.90625 8.875 -83.90625 L 7.421875 -83.90625 L 7.296875 -85.109375 L 31.5 -85.109375 C 39.84375 -85.109375 46.320312 -83.265625 50.9375 -79.578125 C 55.5625 -75.890625 57.875 -70.96875 57.875 -64.8125 C 57.875 -59.945312 56.578125 -55.910156 53.984375 -52.703125 C 51.390625 -49.503906 48.226562 -47.378906 44.5 -46.328125 C 50.90625 -45.359375 55.972656 -42.722656 59.703125 -38.421875 C 63.429688 -34.128906 65.296875 -28.71875 65.296875 -22.1875 C 65.296875 -15.664062 62.800781 -10.335938 57.8125 -6.203125 C 52.832031 -2.066406 45.882812 0 36.96875 0 Z M 24.5625 -4.375 L 36.484375 -4.375 C 36.554688 -4.375 36.632812 -4.375 36.71875 -4.375 C 42.882812 -4.375 47.664062 -6.054688 51.0625 -9.421875 C 54.46875 -12.785156 56.171875 -17.546875 56.171875 -23.703125 C 56.171875 -27.191406 55.582031 -30.253906 54.40625 -32.890625 C 53.238281 -35.523438 51.757812 -37.613281 49.96875 -39.15625 C 45.269531 -43.039062 38.21875 -44.984375 28.8125 -44.984375 C 28.8125 -44.984375 28.773438 -44.984375 28.703125 -44.984375 L 28.703125 -46.078125 C 28.773438 -46.078125 29.15625 -46.078125 29.84375 -46.078125 C 30.539062 -46.078125 31.535156 -46.160156 32.828125 -46.328125 C 34.128906 -46.492188 35.585938 -46.773438 37.203125 -47.171875 C 38.828125 -47.578125 40.285156 -48.226562 41.578125 -49.125 C 42.878906 -50.019531 44.097656 -51.070312 45.234375 -52.28125 C 47.585938 -54.957031 48.765625 -58.953125 48.765625 -64.265625 C 48.765625 -69.578125 47.242188 -73.726562 44.203125 -76.71875 C 41.160156 -79.71875 36.757812 -81.21875 31 -81.21875 L 24.5625 -81.21875 Z M 24.5625 -4.375 "/></g></g></g></svg>