<svg xmlns="http://www.w3.org/2000/svg" xmlns:xlink="http://www.w3.org/1999/xlink" width="500" zoomAndPan="magnify" viewBox="0 0 375 374.999991" height="500" preserveAspectRatio="xMidYMid meet" version="1.0"><defs><g/></defs><g fill="#000000" fill-opacity="1"><g transform="translate(141.587606, 174.389671)"><g><path d="M 17.796875 -6.0625 C 18.816406 -6.0625 19.804688 -6.210938 20.765625 -6.515625 C 21.734375 -6.828125 22.441406 -7.128906 22.890625 -7.421875 L 23.5625 -7.875 L 26.421875 -2.171875 C 26.328125 -2.097656 26.195312 -2.003906 26.03125 -1.890625 C 25.863281 -1.773438 25.476562 -1.554688 24.875 -1.234375 C 24.269531 -0.910156 23.617188 -0.628906 22.921875 -0.390625 C 22.234375 -0.148438 21.332031 0.0625 20.21875 0.25 C 19.101562 0.4375 17.953125 0.53125 16.765625 0.53125 C 14.023438 0.53125 11.429688 -0.140625 8.984375 -1.484375 C 6.535156 -2.828125 4.5625 -4.671875 3.0625 -7.015625 C 1.5625 -9.367188 0.8125 -11.914062 0.8125 -14.65625 C 0.8125 -16.71875 1.25 -18.703125 2.125 -20.609375 C 3.007812 -22.515625 4.179688 -24.144531 5.640625 -25.5 C 7.109375 -26.851562 8.816406 -27.929688 10.765625 -28.734375 C 12.710938 -29.546875 14.710938 -29.953125 16.765625 -29.953125 C 18.660156 -29.953125 20.410156 -29.722656 22.015625 -29.265625 C 23.617188 -28.816406 24.753906 -28.367188 25.421875 -27.921875 L 26.421875 -27.234375 L 23.5625 -21.53125 C 23.394531 -21.675781 23.144531 -21.847656 22.8125 -22.046875 C 22.488281 -22.253906 21.828125 -22.523438 20.828125 -22.859375 C 19.828125 -23.191406 18.816406 -23.359375 17.796875 -23.359375 C 16.179688 -23.359375 14.726562 -23.09375 13.4375 -22.5625 C 12.15625 -22.039062 11.140625 -21.351562 10.390625 -20.5 C 9.640625 -19.644531 9.066406 -18.722656 8.671875 -17.734375 C 8.285156 -16.753906 8.09375 -15.75 8.09375 -14.71875 C 8.09375 -12.488281 8.929688 -10.488281 10.609375 -8.71875 C 12.285156 -6.945312 14.679688 -6.0625 17.796875 -6.0625 Z M 17.796875 -6.0625 "/></g></g></g><g fill="#000000" fill-opacity="1"><g transform="translate(165.398463, 174.389671)"><g><path d="M 3.375 -2.265625 C 1.664062 -4.128906 0.8125 -6.414062 0.8125 -9.125 C 0.8125 -11.832031 1.664062 -14.125 3.375 -16 C 5.09375 -17.882812 7.269531 -18.828125 9.90625 -18.828125 C 12.332031 -18.828125 14.332031 -18.066406 15.90625 -16.546875 L 15.90625 -18.296875 L 22.21875 -18.296875 L 22.21875 0 L 15.96875 0 L 15.96875 -2.0625 L 15.90625 -2.0625 C 14.332031 -0.332031 12.332031 0.53125 9.90625 0.53125 C 7.269531 0.53125 5.09375 -0.398438 3.375 -2.265625 Z M 8.75 -12.21875 C 7.9375 -11.414062 7.53125 -10.382812 7.53125 -9.125 C 7.53125 -7.863281 7.921875 -6.832031 8.703125 -6.03125 C 9.484375 -5.238281 10.515625 -4.84375 11.796875 -4.84375 C 13.035156 -4.84375 14.050781 -5.25 14.84375 -6.0625 C 15.644531 -6.875 16.046875 -7.894531 16.046875 -9.125 C 16.046875 -10.382812 15.632812 -11.414062 14.8125 -12.21875 C 13.988281 -13.03125 12.984375 -13.4375 11.796875 -13.4375 C 10.585938 -13.4375 9.570312 -13.03125 8.75 -12.21875 Z M 8.75 -12.21875 "/></g></g></g><g fill="#000000" fill-opacity="1"><g transform="translate(186.714078, 174.389671)"><g><path d="M 2.140625 0 L 2.140625 -18.296875 L 8.453125 -18.296875 L 8.453125 -15.65625 L 8.515625 -15.65625 C 8.566406 -15.75 8.644531 -15.863281 8.75 -16 C 8.851562 -16.144531 9.082031 -16.394531 9.4375 -16.75 C 9.800781 -17.113281 10.1875 -17.4375 10.59375 -17.71875 C 11 -18.007812 11.519531 -18.265625 12.15625 -18.484375 C 12.800781 -18.710938 13.457031 -18.828125 14.125 -18.828125 C 14.8125 -18.828125 15.488281 -18.726562 16.15625 -18.53125 C 16.820312 -18.34375 17.304688 -18.15625 17.609375 -17.96875 L 18.109375 -17.6875 L 15.46875 -12.34375 C 14.6875 -13 13.59375 -13.328125 12.1875 -13.328125 C 11.425781 -13.328125 10.769531 -13.160156 10.21875 -12.828125 C 9.675781 -12.503906 9.289062 -12.101562 9.0625 -11.625 C 8.84375 -11.144531 8.6875 -10.738281 8.59375 -10.40625 C 8.5 -10.070312 8.453125 -9.8125 8.453125 -9.625 L 8.453125 0 Z M 2.140625 0 "/></g></g></g><g fill="#000000" fill-opacity="1"><g transform="translate(201.435125, 174.389671)"><g><path d="M 20.640625 -8.265625 L 7.375 -8.265625 C 7.375 -6.984375 7.789062 -6.035156 8.625 -5.421875 C 9.457031 -4.804688 10.363281 -4.5 11.34375 -4.5 C 12.363281 -4.5 13.171875 -4.632812 13.765625 -4.90625 C 14.359375 -5.175781 15.035156 -5.71875 15.796875 -6.53125 L 20.359375 -4.25 C 18.453125 -1.0625 15.289062 0.53125 10.875 0.53125 C 8.113281 0.53125 5.742188 -0.410156 3.765625 -2.296875 C 1.796875 -4.191406 0.8125 -6.46875 0.8125 -9.125 C 0.8125 -11.789062 1.796875 -14.070312 3.765625 -15.96875 C 5.742188 -17.875 8.113281 -18.828125 10.875 -18.828125 C 13.769531 -18.828125 16.128906 -17.988281 17.953125 -16.3125 C 19.773438 -14.632812 20.6875 -12.238281 20.6875 -9.125 C 20.6875 -8.695312 20.671875 -8.410156 20.640625 -8.265625 Z M 7.5625 -11.765625 L 14.515625 -11.765625 C 14.367188 -12.710938 13.992188 -13.441406 13.390625 -13.953125 C 12.785156 -14.460938 12.003906 -14.71875 11.046875 -14.71875 C 10.003906 -14.71875 9.171875 -14.441406 8.546875 -13.890625 C 7.929688 -13.347656 7.601562 -12.640625 7.5625 -11.765625 Z M 7.5625 -11.765625 "/></g></g></g><g fill="#000000" fill-opacity="1"><g transform="translate(219.899032, 174.389671)"><g><path d="M 20.640625 -8.265625 L 7.375 -8.265625 C 7.375 -6.984375 7.789062 -6.035156 8.625 -5.421875 C 9.457031 -4.804688 10.363281 -4.5 11.34375 -4.5 C 12.363281 -4.5 13.171875 -4.632812 13.765625 -4.90625 C 14.359375 -5.175781 15.035156 -5.71875 15.796875 -6.53125 L 20.359375 -4.25 C 18.453125 -1.0625 15.289062 0.53125 10.875 0.53125 C 8.113281 0.53125 5.742188 -0.410156 3.765625 -2.296875 C 1.796875 -4.191406 0.8125 -6.46875 0.8125 -9.125 C 0.8125 -11.789062 1.796875 -14.070312 3.765625 -15.96875 C 5.742188 -17.875 8.113281 -18.828125 10.875 -18.828125 C 13.769531 -18.828125 16.128906 -17.988281 17.953125 -16.3125 C 19.773438 -14.632812 20.6875 -12.238281 20.6875 -9.125 C 20.6875 -8.695312 20.671875 -8.410156 20.640625 -8.265625 Z M 7.5625 -11.765625 L 14.515625 -11.765625 C 14.367188 -12.710938 13.992188 -13.441406 13.390625 -13.953125 C 12.785156 -14.460938 12.003906 -14.71875 11.046875 -14.71875 C 10.003906 -14.71875 9.171875 -14.441406 8.546875 -13.890625 C 7.929688 -13.347656 7.601562 -12.640625 7.5625 -11.765625 Z M 7.5625 -11.765625 "/></g></g></g><g fill="#000000" fill-opacity="1"><g transform="translate(238.36294, 174.389671)"><g><path d="M 2.140625 0 L 2.140625 -18.296875 L 8.453125 -18.296875 L 8.453125 -15.65625 L 8.515625 -15.65625 C 8.566406 -15.75 8.644531 -15.863281 8.75 -16 C 8.851562 -16.144531 9.082031 -16.394531 9.4375 -16.75 C 9.800781 -17.113281 10.1875 -17.4375 10.59375 -17.71875 C 11 -18.007812 11.519531 -18.265625 12.15625 -18.484375 C 12.800781 -18.710938 13.457031 -18.828125 14.125 -18.828125 C 14.8125 -18.828125 15.488281 -18.726562 16.15625 -18.53125 C 16.820312 -18.34375 17.304688 -18.15625 17.609375 -17.96875 L 18.109375 -17.6875 L 15.46875 -12.34375 C 14.6875 -13 13.59375 -13.328125 12.1875 -13.328125 C 11.425781 -13.328125 10.769531 -13.160156 10.21875 -12.828125 C 9.675781 -12.503906 9.289062 -12.101562 9.0625 -11.625 C 8.84375 -11.144531 8.6875 -10.738281 8.59375 -10.40625 C 8.5 -10.070312 8.453125 -9.8125 8.453125 -9.625 L 8.453125 0 Z M 2.140625 0 "/></g></g></g><g fill="#000000" fill-opacity="1"><g transform="translate(253.08732, 174.389671)"><g/></g></g><g fill="#000000" fill-opacity="1"><g transform="translate(259.787947, 174.389671)"><g/></g></g><g fill="#000000" fill-opacity="1"><g transform="translate(266.488574, 174.389671)"><g/></g></g><g fill="#000000" fill-opacity="1"><g transform="translate(273.189202, 174.389671)"><g/></g></g><g fill="#000000" fill-opacity="1"><g transform="translate(279.889829, 174.389671)"><g/></g></g><g fill="#000000" fill-opacity="1"><g transform="translate(162.115432, 223.995865)"><g><path d="M 8.84375 -18.25 L 8.84375 0 L 2.140625 0 L 2.140625 -29.421875 L 8.84375 -29.421875 L 20.53125 -11.15625 L 20.609375 -11.15625 L 20.609375 -29.421875 L 27.3125 -29.421875 L 27.3125 0 L 20.609375 0 L 8.90625 -18.25 Z M 8.84375 -18.25 "/></g></g></g><g fill="#000000" fill-opacity="1"><g transform="translate(188.528473, 223.995865)"><g><path d="M 20.640625 -8.265625 L 7.375 -8.265625 C 7.375 -6.984375 7.789062 -6.035156 8.625 -5.421875 C 9.457031 -4.804688 10.363281 -4.5 11.34375 -4.5 C 12.363281 -4.5 13.171875 -4.632812 13.765625 -4.90625 C 14.359375 -5.175781 15.035156 -5.71875 15.796875 -6.53125 L 20.359375 -4.25 C 18.453125 -1.0625 15.289062 0.53125 10.875 0.53125 C 8.113281 0.53125 5.742188 -0.410156 3.765625 -2.296875 C 1.796875 -4.191406 0.8125 -6.46875 0.8125 -9.125 C 0.8125 -11.789062 1.796875 -14.070312 3.765625 -15.96875 C 5.742188 -17.875 8.113281 -18.828125 10.875 -18.828125 C 13.769531 -18.828125 16.128906 -17.988281 17.953125 -16.3125 C 19.773438 -14.632812 20.6875 -12.238281 20.6875 -9.125 C 20.6875 -8.695312 20.671875 -8.410156 20.640625 -8.265625 Z M 7.5625 -11.765625 L 14.515625 -11.765625 C 14.367188 -12.710938 13.992188 -13.441406 13.390625 -13.953125 C 12.785156 -14.460938 12.003906 -14.71875 11.046875 -14.71875 C 10.003906 -14.71875 9.171875 -14.441406 8.546875 -13.890625 C 7.929688 -13.347656 7.601562 -12.640625 7.5625 -11.765625 Z M 7.5625 -11.765625 "/></g></g></g><g fill="#000000" fill-opacity="1"><g transform="translate(206.992381, 223.995865)"><g><path d="M 10.09375 -18.828125 C 11.132812 -18.828125 12.164062 -18.707031 13.1875 -18.46875 C 14.207031 -18.226562 14.96875 -17.988281 15.46875 -17.75 L 16.21875 -17.40625 L 14.15625 -13.265625 C 12.726562 -14.023438 11.375 -14.40625 10.09375 -14.40625 C 9.375 -14.40625 8.863281 -14.328125 8.5625 -14.171875 C 8.269531 -14.015625 8.125 -13.722656 8.125 -13.296875 C 8.125 -13.203125 8.132812 -13.109375 8.15625 -13.015625 C 8.1875 -12.921875 8.238281 -12.832031 8.3125 -12.75 C 8.382812 -12.664062 8.445312 -12.59375 8.5 -12.53125 C 8.5625 -12.46875 8.660156 -12.398438 8.796875 -12.328125 C 8.941406 -12.265625 9.054688 -12.210938 9.140625 -12.171875 C 9.222656 -12.140625 9.359375 -12.085938 9.546875 -12.015625 C 9.742188 -11.941406 9.890625 -11.882812 9.984375 -11.84375 C 10.078125 -11.8125 10.234375 -11.757812 10.453125 -11.6875 C 10.679688 -11.625 10.859375 -11.578125 10.984375 -11.546875 C 11.722656 -11.335938 12.363281 -11.101562 12.90625 -10.84375 C 13.457031 -10.582031 14.035156 -10.222656 14.640625 -9.765625 C 15.242188 -9.316406 15.710938 -8.75 16.046875 -8.0625 C 16.378906 -7.375 16.546875 -6.585938 16.546875 -5.703125 C 16.546875 -1.546875 13.65625 0.53125 7.875 0.53125 C 6.570312 0.53125 5.332031 0.332031 4.15625 -0.0625 C 2.976562 -0.46875 2.128906 -0.875 1.609375 -1.28125 L 0.8125 -1.921875 L 3.390625 -6.234375 C 3.578125 -6.066406 3.820312 -5.867188 4.125 -5.640625 C 4.4375 -5.421875 5 -5.113281 5.8125 -4.71875 C 6.625 -4.332031 7.328125 -4.140625 7.921875 -4.140625 C 9.222656 -4.140625 9.875 -4.578125 9.875 -5.453125 C 9.875 -5.859375 9.707031 -6.171875 9.375 -6.390625 C 9.039062 -6.617188 8.472656 -6.875 7.671875 -7.15625 C 6.878906 -7.445312 6.257812 -7.710938 5.8125 -7.953125 C 4.664062 -8.546875 3.757812 -9.21875 3.09375 -9.96875 C 2.4375 -10.71875 2.109375 -11.707031 2.109375 -12.9375 C 2.109375 -14.789062 2.828125 -16.234375 4.265625 -17.265625 C 5.703125 -18.304688 7.644531 -18.828125 10.09375 -18.828125 Z M 10.09375 -18.828125 "/></g></g></g><g fill="#000000" fill-opacity="1"><g transform="translate(221.49955, 223.995865)"><g><path d="M 3.203125 -18.296875 L 3.203125 -25.109375 L 9.515625 -25.109375 L 9.515625 -18.296875 L 13.375 -18.296875 L 13.375 -13.484375 L 9.515625 -13.484375 L 9.515625 -7.671875 C 9.515625 -5.984375 9.992188 -5.140625 10.953125 -5.140625 C 11.179688 -5.140625 11.425781 -5.1875 11.6875 -5.28125 C 11.957031 -5.375 12.160156 -5.46875 12.296875 -5.5625 L 12.515625 -5.703125 L 14.078125 -0.609375 C 12.722656 0.148438 11.179688 0.53125 9.453125 0.53125 C 8.265625 0.53125 7.238281 0.320312 6.375 -0.09375 C 5.519531 -0.507812 4.875 -1.066406 4.4375 -1.765625 C 4 -2.460938 3.679688 -3.195312 3.484375 -3.96875 C 3.296875 -4.75 3.203125 -5.578125 3.203125 -6.453125 L 3.203125 -13.484375 L 0.578125 -13.484375 L 0.578125 -18.296875 Z M 3.203125 -18.296875 "/></g></g></g><path stroke-linecap="butt" transform="matrix(0.75, 0, 0, 0.75, 126.548581, 228.073139)" fill="none" stroke-linejoin="miter" d="M -0.00227465 5.001439 L 84.435231 5.001439 " stroke="#292929" stroke-width="10" stroke-opacity="1" stroke-miterlimit="4"/><path stroke-linecap="butt" transform="matrix(0, 0.75, -0.75, 0, 134.044743, 171.479446)" fill="none" stroke-linejoin="miter" d="M 0.00136321 5.002366 L 82.46491 5.002366 " stroke="#292929" stroke-width="10" stroke-opacity="1" stroke-miterlimit="4"/><path stroke-linecap="butt" transform="matrix(-0.75, 0, 0, -0.75, 271.154958, 150.984393)" fill="none" stroke-linejoin="miter" d="M -0.00172281 5.000025 L 84.430574 5.000025 " stroke="#292929" stroke-width="10" stroke-opacity="1" stroke-miterlimit="4"/><path stroke-linecap="butt" transform="matrix(0, -0.75, 0.75, 0, 263.658825, 207.578101)" fill="none" stroke-linejoin="miter" d="M -0.000032308 5.001776 L 82.463515 5.001776 " stroke="#292929" stroke-width="10" stroke-opacity="1" stroke-miterlimit="4"/></svg>